<svg xmlns="http://www.w3.org/2000/svg" xmlns:xlink="http://www.w3.org/1999/xlink" width="44" height="44" viewBox="0 0 44 44">
  <defs>
    <linearGradient id="linear-gradient" x1="0.5" y1="1" x2="0.5" gradientUnits="objectBoundingBox">
      <stop offset="0" stop-color="#f05f0d"/>
      <stop offset="1" stop-color="#ff0c02"/>
    </linearGradient>
  </defs>
  <g id="cart_icon" transform="translate(-1744 -50)">
    <circle id="Ellipse_1_copy_2" data-name="Ellipse 1 copy 2" cx="22" cy="22" r="22" transform="translate(1744 50)" fill="url(#linear-gradient)"/>
    <path id="Color_Overlay" data-name="Color Overlay" d="M1772.226,85.285a1.609,1.609,0,1,1,1.6,1.715A1.663,1.663,0,0,1,1772.226,85.285Zm-13.57,0A1.609,1.609,0,1,1,1760.261,87,1.663,1.663,0,0,1,1758.656,85.285Zm2.442-3.152a3.745,3.745,0,0,1-3.631-3.376l-2.441-18.535a2.374,2.374,0,0,0-2.314-2.146h-2.045a.622.622,0,0,1-.3-.076h5.117a4.052,4.052,0,0,1,.859,2.027l.272,2.06h22.712a.707.707,0,0,1,.649.9l-3.751,14.252a.679.679,0,0,1-.642.521l-16.9-.013.107.811a2.374,2.374,0,0,0,2.313,2.146h14.567a.714.714,0,0,1,0,1.425Zm9.733-5.792,4.248,0,1.64-6.232-5.049,0Zm-5.911-.005,4.566,0,.839-6.231-6.242,0Zm-6.428,0,5.082,0-.839-6.232-5.064,0Zm13.369-7.642,5.232,0,1.364-5.181h-5.9Zm-7.97,0,6.625,0,.7-5.178h-8.019Zm-6.406,0,5.061,0-.7-5.174H1756.8Z" fill="#fff"/>
  </g>
</svg>
