<svg xmlns="http://www.w3.org/2000/svg" width="108.927" height="32.72" viewBox="0 0 108.927 32.72">
  <g id="design_leaf" transform="matrix(0, -1, 1, 0, -586.121, 941.95)">
    <g id="Group_189" data-name="Group 189">
      <g id="Group_177" data-name="Group 177">
        <path id="Path_233" data-name="Path 233" d="M922.769,598.137s.392,6.014.824,15.039c.1,2.257.211,4.7.328,7.287.1,2.587.2,5.316.306,8.137.084,2.823.2,5.739.261,8.7s.15,5.977.186,8.989q.033,2.259.067,4.512.012,2.251.021,4.479c.03,2.967-.006,5.885-.029,8.712,0,2.825-.1,5.556-.158,8.145-.038,2.592-.2,5.039-.285,7.3s-.262,4.331-.387,6.166c-.067.918-.128,1.777-.186,2.571s-.163,1.521-.231,2.178l-.453,4.134a.622.622,0,1,1-1.236-.139v0l0-.03s.171-1.487.471-4.094c.072-.652.166-1.371.241-2.159s.129-1.643.2-2.555c.135-1.824.331-3.878.419-6.133s.273-4.688.326-7.272c.069-2.583.184-5.306.2-8.127.039-2.82.09-5.733.078-8.7,0-1.48,0-2.974,0-4.472q-.021-2.248-.043-4.507c-.018-3.01-.078-6.019-.136-8.981s-.144-5.877-.211-8.7c-.091-2.82-.178-5.546-.261-8.131-.1-2.586-.2-5.029-.287-7.285-.382-9.024-.738-15.031-.738-15.031a.352.352,0,1,1,.7-.045Z" fill="#667a01"/>
      </g>
      <g id="Group_178" data-name="Group 178">
        <path id="Path_234" data-name="Path 234" d="M931.36,611.153s-8.146,2.657-8.019,12.831C923.341,623.984,930.934,621.266,931.36,611.153Z" fill="#667a01"/>
      </g>
      <g id="Group_179" data-name="Group 179">
        <path id="Path_235" data-name="Path 235" d="M915.86,611.153s8.144,2.657,8.017,12.831C923.877,623.984,916.286,621.266,915.86,611.153Z" fill="#667a01"/>
      </g>
      <g id="Group_180" data-name="Group 180">
        <path id="Path_236" data-name="Path 236" d="M941.95,629.14s-5.591,1.825-5.5,8.807C936.446,637.946,941.658,636.081,941.95,629.14Z" fill="#667a01"/>
      </g>
      <g id="Group_181" data-name="Group 181">
        <path id="Path_237" data-name="Path 237" d="M931.311,629.14s5.59,1.825,5.5,8.807C936.814,637.946,931.6,636.081,931.311,629.14Z" fill="#667a01"/>
      </g>
      <g id="Group_182" data-name="Group 182">
        <path id="Path_238" data-name="Path 238" d="M919.869,649.132s-5.591,1.824-5.5,8.807C914.366,657.939,919.577,656.073,919.869,649.132Z" fill="#667a01"/>
      </g>
      <g id="Group_183" data-name="Group 183">
        <path id="Path_239" data-name="Path 239" d="M909.231,649.132s5.591,1.824,5.5,8.807C914.734,657.939,909.522,656.073,909.231,649.132Z" fill="#667a01"/>
      </g>
      <g id="Group_184" data-name="Group 184">
        <path id="Path_240" data-name="Path 240" d="M922.145,601.629s-4.51-1.059-4.252-11.009c0,0,2.669,2.557,2.794,4s-.957-4.889.873-8.495a12.613,12.613,0,0,1,2.741,7.753s.832-3.226,2.079-4.317C927.391,591.4,927.628,602.971,922.145,601.629Z" fill="#ff7319"/>
      </g>
      <g id="Group_185" data-name="Group 185">
        <path id="Path_241" data-name="Path 241" d="M938.4,613.857s.133,3.346-.008,8.356a135.339,135.339,0,0,1-1.681,18.3,71.386,71.386,0,0,1-2.262,9.588,35.361,35.361,0,0,1-3.51,7.9,19.279,19.279,0,0,1-2.1,2.8,15.19,15.19,0,0,1-2.014,1.841,12.37,12.37,0,0,1-1.495.948l-.562.287a.618.618,0,0,1-.835-.277.63.63,0,0,1,.275-.842l.006,0,.039-.021.5-.249a11.393,11.393,0,0,0,1.351-.836,13.85,13.85,0,0,0,1.863-1.665,18.012,18.012,0,0,0,2.005-2.609,34.176,34.176,0,0,0,3.479-7.61,70.27,70.27,0,0,0,2.335-9.422,134.325,134.325,0,0,0,1.876-18.162c.1-2.493.125-4.572.126-6.026s-.022-2.282-.022-2.282a.318.318,0,1,1,.635-.022Z" fill="#667a01"/>
      </g>
      <g id="Group_186" data-name="Group 186">
        <path id="Path_242" data-name="Path 242" d="M914.235,640.691s-.061,2.389.087,5.977c.075,1.793.206,3.882.424,6.11.1,1.116.242,2.264.4,3.429s.347,2.342.557,3.514.461,2.336.746,3.47c.143.565.282,1.129.448,1.675.08.274.159.547.237.819s.177.531.264.794a29.286,29.286,0,0,0,1.157,2.962c.2.462.441.885.649,1.308.226.413.469.794.689,1.169.242.357.487.69.712,1.011l.717.84a9.214,9.214,0,0,0,1.328,1.161,5.5,5.5,0,0,0,.95.588c.226.124.348.188.348.188l.078.043a.627.627,0,0,1,.251.847.617.617,0,0,1-.84.254l-.005,0-.4-.225a6.508,6.508,0,0,1-1.094-.7,10.523,10.523,0,0,1-1.482-1.339c-.243-.294-.508-.6-.775-.937-.24-.352-.5-.716-.753-1.106-.228-.4-.483-.816-.713-1.256-.213-.45-.46-.9-.662-1.388a30.528,30.528,0,0,1-1.151-3.088c-.085-.273-.171-.547-.258-.824s-.153-.559-.229-.842c-.162-.561-.294-1.139-.432-1.72-.272-1.16-.5-2.349-.7-3.539s-.368-2.388-.507-3.567-.258-2.34-.347-3.467c-.184-2.252-.281-4.357-.33-6.162-.091-3.609.007-6.02.007-6.02a.318.318,0,1,1,.636.019Z" fill="#667a01"/>
      </g>
      <g id="Group_187" data-name="Group 187">
        <path id="Path_243" data-name="Path 243" d="M913.665,643.56s-3.734-.876-3.522-9.117c0,0,2.211,2.117,2.314,3.308s-.791-4.05.723-7.034a10.454,10.454,0,0,1,2.272,6.421s.688-2.673,1.721-3.576C918.011,635.091,918.2,644.671,913.665,643.56Z" fill="#ff7319"/>
      </g>
      <g id="Group_188" data-name="Group 188">
        <path id="Path_244" data-name="Path 244" d="M937.892,616.233s-3.736-.876-3.522-9.117c0,0,2.21,2.117,2.313,3.308s-.791-4.05.723-7.035a10.455,10.455,0,0,1,2.272,6.422s.688-2.673,1.721-3.575C942.237,607.763,942.432,617.344,937.892,616.233Z" fill="#ff7319"/>
      </g>
    </g>
  </g>
</svg>
