<svg xmlns="http://www.w3.org/2000/svg" width="173" height="96" viewBox="0 0 173 96">
  <g id="design_element_1" transform="translate(-220.93 -247.887)">
    <g id="Group_262" data-name="Group 262">
      <g id="Group_252" data-name="Group 252">
        <g id="Group_250" data-name="Group 250">
          <path id="Path_1019" data-name="Path 1019" d="M265.727,273.858a1.458,1.458,0,0,1-2.058,0L244.178,254.4a1.449,1.449,0,0,1,0-2.054h0a1.455,1.455,0,0,1,2.059,0l19.49,19.459a1.45,1.45,0,0,1,0,2.055Z" fill="#4f170a"/>
          <path id="Path_1020" data-name="Path 1020" d="M244.178,273.858a1.459,1.459,0,0,0,2.059,0l19.49-19.46a1.449,1.449,0,0,0,0-2.054h0a1.454,1.454,0,0,0-2.058,0L244.178,271.8a1.45,1.45,0,0,0,0,2.055Z" fill="#4f170a"/>
        </g>
        <g id="Group_251" data-name="Group 251">
          <path id="Path_1021" data-name="Path 1021" d="M270.189,263.1a1.454,1.454,0,0,1-1.456,1.453H241.171a1.454,1.454,0,0,1-1.456-1.453h0a1.454,1.454,0,0,1,1.456-1.453h27.563a1.453,1.453,0,0,1,1.456,1.453Z" fill="#4f170a"/>
          <path id="Path_1022" data-name="Path 1022" d="M254.953,278.313a1.453,1.453,0,0,0,1.456-1.453V249.339a1.455,1.455,0,0,0-1.456-1.453h0a1.456,1.456,0,0,0-1.456,1.453V276.86a1.454,1.454,0,0,0,1.456,1.453Z" fill="#4f170a"/>
        </g>
      </g>
      <g id="Group_255" data-name="Group 255">
        <g id="Group_253" data-name="Group 253">
          <path id="Path_1023" data-name="Path 1023" d="M300.322,273.858a1.459,1.459,0,0,1-2.059,0L278.774,254.4a1.447,1.447,0,0,1,0-2.054h0a1.453,1.453,0,0,1,2.057,0L300.322,271.8a1.452,1.452,0,0,1,0,2.055Z" fill="#4f170a"/>
          <path id="Path_1024" data-name="Path 1024" d="M278.774,273.858a1.456,1.456,0,0,0,2.057,0l19.491-19.46a1.451,1.451,0,0,0,0-2.054h0a1.455,1.455,0,0,0-2.059,0L278.774,271.8a1.448,1.448,0,0,0,0,2.055Z" fill="#4f170a"/>
        </g>
        <g id="Group_254" data-name="Group 254">
          <path id="Path_1025" data-name="Path 1025" d="M304.784,263.1a1.454,1.454,0,0,1-1.455,1.453H275.766a1.454,1.454,0,0,1-1.455-1.453h0a1.453,1.453,0,0,1,1.455-1.453h27.564a1.454,1.454,0,0,1,1.455,1.453Z" fill="#4f170a"/>
          <path id="Path_1026" data-name="Path 1026" d="M289.548,278.313A1.453,1.453,0,0,0,291,276.86V249.339a1.455,1.455,0,0,0-1.455-1.453h0a1.456,1.456,0,0,0-1.456,1.453V276.86a1.454,1.454,0,0,0,1.456,1.453Z" fill="#4f170a"/>
        </g>
      </g>
      <g id="Group_258" data-name="Group 258">
        <g id="Group_256" data-name="Group 256">
          <path id="Path_1027" data-name="Path 1027" d="M335.686,273.858a1.459,1.459,0,0,1-2.059,0l-19.49-19.46a1.449,1.449,0,0,1,0-2.054h0a1.454,1.454,0,0,1,2.058,0L335.686,271.8a1.45,1.45,0,0,1,0,2.055Z" fill="#4f170a"/>
          <path id="Path_1028" data-name="Path 1028" d="M314.138,273.858a1.458,1.458,0,0,0,2.058,0l19.491-19.46a1.449,1.449,0,0,0,0-2.054h0a1.455,1.455,0,0,0-2.059,0L314.138,271.8a1.45,1.45,0,0,0,0,2.055Z" fill="#4f170a"/>
        </g>
        <g id="Group_257" data-name="Group 257">
          <path id="Path_1029" data-name="Path 1029" d="M340.149,263.1a1.454,1.454,0,0,1-1.456,1.453H311.131a1.453,1.453,0,0,1-1.456-1.453h0a1.453,1.453,0,0,1,1.456-1.453h27.562a1.453,1.453,0,0,1,1.456,1.453Z" fill="#4f170a"/>
          <path id="Path_1030" data-name="Path 1030" d="M324.912,278.313a1.453,1.453,0,0,0,1.455-1.453V249.339a1.455,1.455,0,0,0-1.455-1.453h0a1.456,1.456,0,0,0-1.457,1.453V276.86a1.454,1.454,0,0,0,1.457,1.453Z" fill="#4f170a"/>
        </g>
      </g>
      <g id="Group_261" data-name="Group 261">
        <g id="Group_259" data-name="Group 259">
          <path id="Path_1031" data-name="Path 1031" d="M370.967,273.858a1.459,1.459,0,0,1-2.059,0L349.417,254.4a1.451,1.451,0,0,1,0-2.054h0a1.455,1.455,0,0,1,2.059,0L370.967,271.8a1.45,1.45,0,0,1,0,2.055Z" fill="#4f170a"/>
          <path id="Path_1032" data-name="Path 1032" d="M349.417,273.858a1.459,1.459,0,0,0,2.059,0l19.491-19.46a1.449,1.449,0,0,0,0-2.054h0a1.455,1.455,0,0,0-2.059,0L349.417,271.8a1.452,1.452,0,0,0,0,2.055Z" fill="#4f170a"/>
        </g>
        <g id="Group_260" data-name="Group 260">
          <path id="Path_1033" data-name="Path 1033" d="M375.429,263.1a1.454,1.454,0,0,1-1.456,1.453H346.411a1.455,1.455,0,0,1-1.456-1.453h0a1.454,1.454,0,0,1,1.456-1.453h27.563a1.453,1.453,0,0,1,1.456,1.453Z" fill="#4f170a"/>
          <path id="Path_1034" data-name="Path 1034" d="M360.192,278.313a1.454,1.454,0,0,0,1.456-1.453V249.339a1.456,1.456,0,0,0-1.456-1.453h0a1.455,1.455,0,0,0-1.456,1.453V276.86a1.453,1.453,0,0,0,1.456,1.453Z" fill="#4f170a"/>
        </g>
      </g>
      <path id="Path_1035" data-name="Path 1035" d="M241.123,299.66a4.653,4.653,0,1,1-4.653-4.645A4.649,4.649,0,0,1,241.123,299.66Z" fill="#4f170a"/>
      <path id="Path_1036" data-name="Path 1036" d="M247.151,294.188a12.009,12.009,0,0,0-21.362,0H220.93a16.481,16.481,0,0,1,31.082,0Z" fill="#ff7319"/>
      <path id="Path_1037" data-name="Path 1037" d="M276.6,299.66a4.653,4.653,0,1,1-4.653-4.645A4.649,4.649,0,0,1,276.6,299.66Z" fill="#4f170a"/>
      <path id="Path_1038" data-name="Path 1038" d="M282.631,294.188a12.009,12.009,0,0,0-21.362,0h-4.86a16.481,16.481,0,0,1,31.082,0Z" fill="#ff7319"/>
      <path id="Path_1039" data-name="Path 1039" d="M312.082,299.66a4.653,4.653,0,1,1-4.652-4.645A4.649,4.649,0,0,1,312.082,299.66Z" fill="#4f170a"/>
      <path id="Path_1040" data-name="Path 1040" d="M318.111,294.188a12.009,12.009,0,0,0-21.363,0h-4.86a16.482,16.482,0,0,1,31.083,0Z" fill="#ff7319"/>
      <path id="Path_1041" data-name="Path 1041" d="M347.562,299.66a4.653,4.653,0,1,1-4.653-4.645A4.649,4.649,0,0,1,347.562,299.66Z" fill="#4f170a"/>
      <path id="Path_1042" data-name="Path 1042" d="M353.59,294.188a12.009,12.009,0,0,0-21.362,0h-4.86a16.482,16.482,0,0,1,31.083,0Z" fill="#ff7319"/>
      <path id="Path_1043" data-name="Path 1043" d="M383.041,299.66a4.652,4.652,0,1,1-4.652-4.645A4.649,4.649,0,0,1,383.041,299.66Z" fill="#4f170a"/>
      <path id="Path_1044" data-name="Path 1044" d="M389.069,294.188a12.009,12.009,0,0,0-21.362,0h-4.86a16.481,16.481,0,0,1,31.082,0Z" fill="#ff7319"/>
      <rect id="Rectangle_81" data-name="Rectangle 81" width="10.928" height="10.928" transform="matrix(0.708, -0.707, 0.708, 0.707, 245.763, 312.118)" fill="#667a01"/>
      <rect id="Rectangle_82" data-name="Rectangle 82" width="10.928" height="10.928" transform="matrix(0.708, -0.707, 0.708, 0.707, 281.814, 312.118)" fill="#667a01"/>
      <rect id="Rectangle_83" data-name="Rectangle 83" width="10.928" height="10.928" transform="matrix(0.708, -0.706, 0.708, 0.707, 317.865, 312.118)" fill="#667a01"/>
      <rect id="Rectangle_84" data-name="Rectangle 84" width="10.928" height="10.928" transform="matrix(0.708, -0.706, 0.708, 0.707, 353.915, 312.118)" fill="#667a01"/>
      <rect id="Rectangle_85" data-name="Rectangle 85" width="17.631" height="17.631" transform="matrix(0.708, -0.707, 0.708, 0.707, 259.473, 331.43)" fill="#ff7319"/>
      <rect id="Rectangle_86" data-name="Rectangle 86" width="17.631" height="17.631" transform="matrix(0.708, -0.707, 0.708, 0.707, 294.953, 331.43)" fill="#ff7319"/>
      <rect id="Rectangle_87" data-name="Rectangle 87" width="17.631" height="17.631" transform="matrix(0.708, -0.707, 0.708, 0.707, 330.432, 331.431)" fill="#ff7319"/>
      <path id="Path_1045" data-name="Path 1045" d="M276.6,331.43a4.653,4.653,0,1,1-4.653-4.645A4.648,4.648,0,0,1,276.6,331.43Z" fill="#fff"/>
      <path id="Path_1046" data-name="Path 1046" d="M312.082,331.43a4.653,4.653,0,1,1-4.652-4.645A4.648,4.648,0,0,1,312.082,331.43Z" fill="#fff"/>
      <path id="Path_1047" data-name="Path 1047" d="M347.562,331.43a4.653,4.653,0,1,1-4.653-4.645A4.648,4.648,0,0,1,347.562,331.43Z" fill="#fff"/>
    </g>
  </g>
</svg>
